<svg xmlns="http://www.w3.org/2000/svg" width="50" height="39"><path id="shape" d="M577.34 1590.56s4.493.56 6 .56c1.386 0 3.447.06 6.626-2.41a8.06 8.06 0 003.146 4.72s.88 1.75 1.885 3.58h17.492a26.319 26.319 0 00-.3-4.43s3.8-7.46 1.606-12.28a15.546 15.546 0 009.375-9.01s2.976-2.69 1.341-4.39c0 0-1.782-3.31-6.843-5.54a26.974 26.974 0 01-3.869-2.69s-1.414-2.31-6.55 1.61c0 0-.89 3.01.821 4.31a3.623 3.623 0 003.79-1.92s.222-.3-.217-.46a1.614 1.614 0 001.486-.92 6.578 6.578 0 013.272 3.69c1.04 2.78.889 3 1.488 3.47 0 0-4.611 1.31-5.655 4.92 0 0-4.989.85-5.8 4.08 0 0-3.943.61-3.123-3.23a2.917 2.917 0 012.478-.75s.905.06.248-1.74a1.482 1.482 0 01.275-.67c.112-.28 0-.33-.5-.77a1.065 1.065 0 01.259-.79 2.527 2.527 0 00-.259-.95 2.2 2.2 0 00.744-.93c-.081-.7-1.883-1.06-2.184-1.69a7.043 7.043 0 01.248-1.07 6.832 6.832 0 00-2.543-3.85 6.684 6.684 0 00-9.027 3.13c-.589 1.23-.117 4.22.4 5.49a42.7 42.7 0 002.641 4.46c.1.31.791 4.83-2.976 5.95a8.581 8.581 0 00-5.9 2.16s-4.216-.36-5.356 2.2c0 0-.294-4.47 2.434-7.18a3.937 3.937 0 002.23 0s.5 1.67 1.587 1.02a.669.669 0 00.9-.51.979.979 0 00.916-1.23s.57-1.64-.347-2.1a1.254 1.254 0 00-1.194-1.39s-2.254.17-3 .1a3.888 3.888 0 00-3.722 2.16l-3.619 5.23a16.975 16.975 0 00-2.876 6.93s-1.052 2.56 2.172 3.13z" transform="translate(-575 -1558)" fill="#007ee5" fill-rule="evenodd"/></svg>