<svg xmlns="http://www.w3.org/2000/svg" width="45" height="45"><path id="shape" d="M1205.91 1572.87a5.537 5.537 0 00-.36-.85l-.23-.41a4.3 4.3 0 00.82-2.43v-4.86a4.132 4.132 0 00-.54-1.98l-.11-.22a2.678 2.678 0 00.25-1.09c0-3.92-8.33-6.04-16.17-6.04s-16.18 2.12-16.18 6.04a2.763 2.763 0 00.25 1.1l-.11.21a4.132 4.132 0 00-.54 1.98v4.86a4.239 4.239 0 00.83 2.43l-.24.41a4.247 4.247 0 00-.59 2.08v4.86a4.209 4.209 0 00.79 2.38l-.2.34a4.182 4.182 0 00-.59 2.07v4.87c0 4.31 7.28 7.69 16.58 7.69a35.323 35.323 0 005.39-.41c-.1-.15-.19-.32-.29-.47a13.236 13.236 0 009.96 4.57 13.608 13.608 0 001.28-27.13zm-16.34-16.07c8.92 0 14.4 2.47 14.4 4.23s-5.48 4.25-14.4 4.25-14.4-2.48-14.4-4.25 5.47-4.23 14.4-4.23zm-14.8 8.33c2.66 2.3 8.82 3.48 14.8 3.48s12.13-1.18 14.8-3.48v4.05c0 2.79-6.08 5.89-14.8 5.89s-14.8-3.1-14.8-5.89v-4.05zm0 9.26c2.72 2.54 8.32 4.16 14.8 4.16a36.21 36.21 0 004.4-.3 13.76 13.76 0 00-2.34 4.98 15.47 15.47 0 00-.27 1.54c-.6.03-1.17.08-1.79.08-8.72 0-14.8-3.1-14.8-5.89v-4.57zm14.8 20.11c-8.72 0-14.8-3.1-14.8-5.88v-4.57c2.72 2.53 8.32 4.15 14.8 4.15.62 0 1.21-.05 1.81-.07a13.766 13.766 0 001.44 4.62 14.2 14.2 0 00.92 1.49 34.178 34.178 0 01-4.17.26zm15.06 2.8a10.932 10.932 0 01-9.02-5.04 10.977 10.977 0 01-1.69-5.87v-.09a11.261 11.261 0 01.18-1.85 10.67 10.67 0 01.41-1.62 10.784 10.784 0 018.75-7.24 10.272 10.272 0 011.37-.1c.13 0 .27.01.4.02a10.9 10.9 0 01-.4 21.79zm5.82-9.32h-2.48v-8.42a.37.37 0 00-.44-.35h-6.08c-.62 0-.51.42-.51.42v8.52h-2.69c-.78 0-.07.7-.07.7l5.93 5.86a.531.531 0 00.8.05c.56-.58 5.77-6.05 5.77-6.05s.72-.73-.23-.73z" transform="translate(-1173 -1555)" fill="#007ee5" fill-rule="evenodd"/></svg>