<svg xmlns="http://www.w3.org/2000/svg" width="9" height="16"><path id="facebook" d="M1392.66 65.008h-2.16a3.715 3.715 0 00-3.99 3.934v1.815h-2.17a.332.332 0 00-.34.326v2.628a.332.332 0 00.34.326h2.17v6.632a.332.332 0 00.34.326h2.83a.332.332 0 00.34-.326v-6.635h2.54a.332.332 0 00.34-.326V71.08a.336.336 0 00-.1-.231.342.342 0 00-.24-.1h-2.54v-1.533c0-.739.18-1.115 1.19-1.115h1.45a.332.332 0 00.34-.326v-2.44a.332.332 0 00-.34-.327z" fill="#fff" transform="translate(-1384 -65)" fill-rule="evenodd"/></svg>