<svg xmlns="http://www.w3.org/2000/svg" width="15" height="16"><path id="google_" data-name="google +" d="M1419.76 64.995h-3.68a5.348 5.348 0 00-3.79 1.249 3.81 3.81 0 00-1.29 2.8 3.239 3.239 0 003.34 3.278c.21 0 .44-.022.64-.041l-.03.075a1.743 1.743 0 00-.17.739 2.133 2.133 0 00.57 1.372l.03.047h-.06a8.289 8.289 0 00-3.77.957 3.014 3.014 0 00-1.55 2.547c0 1.486 1.33 2.986 4.32 2.986 3.46 0 5.28-1.984 5.28-3.945a3.667 3.667 0 00-1.69-2.926l-.73-.593a1.124 1.124 0 01-.51-.887 1.425 1.425 0 01.53-.99l.02-.028a3.48 3.48 0 00.27-5.789h1.22a.056.056 0 00.04-.012l1.06-.686a.083.083 0 00.03-.093.08.08 0 00-.08-.06zm-4.46 15.133c-2.11 0-3.53-1.024-3.53-2.549a2.256 2.256 0 011.72-2.149 7.87 7.87 0 012.11-.335 3.166 3.166 0 01.46.02c1.48 1.092 2.19 1.665 2.19 2.757 0 1.392-1.13 2.256-2.95 2.256zm-.02-8.4c-1.77 0-2.51-2.419-2.51-3.715a2.478 2.478 0 01.44-1.546 1.857 1.857 0 011.41-.689c1.63 0 2.53 2.272 2.53 3.841a2.2 2.2 0 01-.5 1.524 2.035 2.035 0 01-1.37.59zm9.64.738h-1.94v-2a.078.078 0 00-.08-.083h-.83a.078.078 0 00-.08.083v2h-1.93a.078.078 0 00-.08.083v.877a.078.078 0 00.08.083h1.93v2.018a.078.078 0 00.08.082h.83a.078.078 0 00.08-.082v-2.013h1.94a.084.084 0 00.08-.083v-.877a.085.085 0 00-.08-.083z" fill="#fff" transform="translate(-1410 -65)" fill-rule="evenodd"/></svg>