<svg xmlns="http://www.w3.org/2000/svg" width="45.344" height="36.56"><path id="Icon" d="M971.605 1928.73H953.48a2.1 2.1 0 00-2.107 2.09v9.28a2.1 2.1 0 002.107 2.09h1.592v3.69a.657.657 0 00.656.65.633.633 0 00.429-.16l4.87-4.18h10.578a2.1 2.1 0 002.107-2.09v-9.28a2.1 2.1 0 00-2.107-2.09zm-12.9 6.35l-.968.93.229 1.32a.247.247 0 01-.1.25.278.278 0 01-.151.05.256.256 0 01-.119-.03l-1.2-.62-1.2.62a.242.242 0 01-.27-.02.247.247 0 01-.1-.25l.228-1.32-.968-.93a.257.257 0 01.142-.44l1.338-.19.6-1.2a.258.258 0 01.459 0l.6 1.2 1.337.19a.257.257 0 01.138.44zm6.147 0l-.968.93.229 1.32a.247.247 0 01-.1.25.275.275 0 01-.151.05.256.256 0 01-.119-.03l-1.2-.62-1.2.62a.241.241 0 01-.269-.02.248.248 0 01-.1-.25l.229-1.32-.968-.93a.257.257 0 01.142-.44l1.338-.19.6-1.2a.258.258 0 01.459 0l.6 1.2 1.337.19a.257.257 0 01.139.44zm6.147 0l-.968.93.229 1.32a.247.247 0 01-.1.25.278.278 0 01-.151.05.253.253 0 01-.119-.03l-1.2-.62-1.2.62a.242.242 0 01-.27-.02.247.247 0 01-.1-.25l.229-1.32-.968-.93a.257.257 0 01.142-.44l1.338-.19.6-1.2a.258.258 0 01.459 0l.6 1.2 1.337.19a.257.257 0 01.143.44zm-28.133.06c-4.432 0-6.886 2.28-6.841 6.67.065 6.02 2.641 9.66 6.841 9.6 0 0 6.838.28 6.838-9.6-.004-4.39-2.312-6.67-6.84-6.67zm12.095 20.84l-6.832-2.71-1.6-1.33a1.072 1.072 0 00-1.439.05l-2.224 2.2-2.231-2.2a1.071 1.071 0 00-1.438-.05l-1.6 1.33-6.833 2.71c-2.2.87-2.2 8.6-2.387 9.31h28.973c-.189-.71-.19-8.44-2.391-9.31z" transform="translate(-928.375 -1928.72)" fill="#a9d8ff" fill-rule="evenodd"/></svg>