<svg xmlns="http://www.w3.org/2000/svg" width="43.87" height="36.56"><path id="Forma_1" data-name="Forma 1" d="M1214.31 1961.92h-8.03l7.52-7.51a1.823 1.823 0 000-2.59l-22.57-22.51a1.841 1.841 0 00-2.59 0l-14.27 14.24a1.823 1.823 0 000 2.59l15.82 15.78h-16.33a1.71 1.71 0 100 3.42h40.45a1.71 1.71 0 100-3.42zm-7.42-11.81l-11.49-2.44-2.44-11.46zm-28.62-5.27l10.46-10.43 3.25 15.23a1.874 1.874 0 00.5.94 1.971 1.971 0 00.94.51l15.27 3.24-7.61 7.59h-5.69z" transform="translate(-1172.16 -1928.78)" fill="#a9d8ff" fill-rule="evenodd"/></svg>