<svg xmlns="http://www.w3.org/2000/svg" width="35" height="39"><path id="Icon" d="M428.823 1949.57a1.334 1.334 0 01.959.4.759.759 0 001.048 0 .73.73 0 000-1.04 2.84 2.84 0 00-4.013 0 .73.73 0 000 1.04.759.759 0 001.048 0 1.332 1.332 0 01.958-.4zm13.347-.64a.73.73 0 000 1.04.759.759 0 001.048 0 1.354 1.354 0 011.917 0 .76.76 0 001.049 0 .732.732 0 000-1.04 2.854 2.854 0 00-4.014 0zm2 7.25a10.939 10.939 0 01-15.346 0 .74.74 0 00-1.048 0 .73.73 0 000 1.04 12.437 12.437 0 0017.442 0 .73.73 0 000-1.04.74.74 0 00-1.045 0zm9.821-5.82a4.1 4.1 0 00-3.37-4.01v-12.3a4.72 4.72 0 00-2.142-3.95 4.82 4.82 0 00-4.236-.53l-4.655-1.56a18.572 18.572 0 00-10.888-.36c-4.642 1.27-7.3 3.96-7.715 7.77a5.6 5.6 0 00-.848 1.59l-.361 1.06a1.254 1.254 0 00.531 1.49 1.289 1.289 0 001.584-.16 2.329 2.329 0 01.482-.37v7.32a4.074 4.074 0 00.232 8.06 14.149 14.149 0 0013.892 11.58 14.067 14.067 0 009.986-4.1 13.834 13.834 0 003.928-7.48 4.1 4.1 0 003.583-4.05zm-6.331-19.04a3.232 3.232 0 011.478 2.73v9.63a4.8 4.8 0 01-4.068-4.72l-.062-8.08a3.247 3.247 0 012.655.44zm-26.26 6.58l.145-.42a4.151 4.151 0 015.687-2.41 5.715 5.715 0 006.6-1.37l.183-.2a.732.732 0 00-.064-1.04.748.748 0 00-1.046.06l-.184.21a4.2 4.2 0 01-4.864 1 5.7 5.7 0 00-4.6-.07c-.134.06-.264.12-.393.19.862-2.28 2.948-3.89 6.23-4.78a17.134 17.134 0 0110.017.33l4.413 1.48.058 3.8a13.17 13.17 0 01-17.705 3.18 4.055 4.055 0 00-4.477.04zm-.911 12.46a2.617 2.617 0 011.887-2.5v3.99c0 .34.013.68.037 1.03a2.625 2.625 0 01-1.924-2.52zm24.949 10.49a12.6 12.6 0 01-8.937 3.67 12.68 12.68 0 01-12.641-12.67v-13.16a2.583 2.583 0 011.212.4 14.668 14.668 0 0018.519-2.12v1.99a6.276 6.276 0 005.551 6.2v6.83a12.392 12.392 0 01-3.704 8.86zm5.157-7.98c.018-.29.029-.59.029-.88v-4.13a2.6 2.6 0 01-.024 5.01z" transform="translate(-419 -1927)" fill="#a9d8ff" fill-rule="evenodd"/></svg>