<svg xmlns="http://www.w3.org/2000/svg" width="24" height="22"><path fill-rule="evenodd" d="M21.545 5.683a10.582 10.582 0 002.467-2.543 9.89 9.89 0 01-2.832.761 4.905 4.905 0 002.162-2.711 9.663 9.663 0 01-3.122 1.188A4.906 4.906 0 0016.627.825a4.917 4.917 0 00-4.919 4.919c0 .38.045.761.122 1.126A13.977 13.977 0 011.688 1.723a4.879 4.879 0 00-.671 2.483c0 1.705.868 3.213 2.193 4.096a4.954 4.954 0 01-2.223-.624v.061a4.92 4.92 0 003.944 4.827 5.18 5.18 0 01-1.294.167c-.32 0-.625-.03-.929-.076a4.927 4.927 0 004.599 3.412A9.857 9.857 0 011.2 18.17c-.411 0-.792-.015-1.188-.061a13.902 13.902 0 007.554 2.208c9.045 0 13.995-7.492 13.995-13.995 0-.213 0-.426-.016-.639z"/></svg>