<svg xmlns="http://www.w3.org/2000/svg" width="16" height="13"><path id="twitter" d="M1366.56 67.239a6.646 6.646 0 01-2.09.8 3.285 3.285 0 00-5.68 2.246 3.086 3.086 0 00.09.748 9.326 9.326 0 01-6.77-3.43 3.3 3.3 0 001.02 4.382 3.313 3.313 0 01-1.49-.412v.037a3.294 3.294 0 002.64 3.219 3.4 3.4 0 01-.87.115 3.308 3.308 0 01-.62-.059 3.291 3.291 0 003.07 2.28 6.586 6.586 0 01-4.08 1.4 6.938 6.938 0 01-.78-.045 9.335 9.335 0 0014.37-7.865l-.01-.425a6.677 6.677 0 001.64-1.7 6.577 6.577 0 01-1.88.517 3.346 3.346 0 001.44-1.808z" fill="#fff" transform="translate(-1351 -67)" fill-rule="evenodd"/></svg>