<svg xmlns="http://www.w3.org/2000/svg" width="16" height="12.97"><path id="_" data-name="" d="M1347.56 6293.76a7.2 7.2 0 001.65-1.7 6.371 6.371 0 01-1.89.51 3.32 3.32 0 001.44-1.81 6.561 6.561 0 01-2.08.8 3.283 3.283 0 00-5.68 2.24 3.744 3.744 0 00.08.75 9.32 9.32 0 01-6.76-3.43 3.28 3.28 0 00-.44 1.65 3.242 3.242 0 001.46 2.73 3.379 3.379 0 01-1.49-.41v.04a3.292 3.292 0 002.63 3.22 3.434 3.434 0 01-.86.11 4.318 4.318 0 01-.62-.05 3.29 3.29 0 003.07 2.27 6.535 6.535 0 01-4.07 1.4 6.738 6.738 0 01-.79-.04 9.332 9.332 0 0014.36-7.86c0-.14 0-.28-.01-.42z" transform="translate(-1333.22 -6290.53)" fill-rule="evenodd"/></svg>